<svg xmlns="http://www.w3.org/2000/svg" viewBox="0 0 264.37 85.98"><defs><style>.cls-1{fill:#fff;}.cls-2{fill:#e6e6e6;}</style></defs><title>whiteLogo</title><g id="Layer_2" data-name="Layer 2"><g id="Header"><path class="cls-1" d="M84.5,47.51c-8.2,0-12-3.17-12-9.95L72.82,10c0-6.81,3.81-10,12-10H262.57c1.22,0,1.76.54,1.76,1.75V7.69c0,1.22-.54,1.75-1.76,1.75H85.71c-2,0-2.09,13.19-2.09,14.84V35.87c0,1.61.92,2.34,3,2.34H99.34c1.21,0,1.75.54,1.75,1.75v5.81c0,1.22-.54,1.75-1.75,1.75Z"/><path class="cls-1" d="M119.16,48.26c-12.19,0-15.16-4-15.16-9.95V21.66c0-5.95,3-10,15.16-10s15.13,4.05,15.13,10V38.31C134.29,44.26,131.36,48.26,119.16,48.26Zm0-9.42c3.57,0,4.11-1,4.11-2.29V23.43c0-1.27-.54-2.24-4.11-2.24s-4.1,1-4.1,2.24V36.55C115.06,37.87,115.66,38.84,119.16,38.84Z"/><path class="cls-1" d="M153.78,48.26c-12.1,0-15.07-4-15.07-9.95V14.16c0-1.21.53-1.75,1.76-1.75h7.68c1.22,0,1.75.54,1.75,1.75V36.41c0,1.31.59,2.29,4,2.29s4-1,4-2.29V14.16c0-1.21.49-1.75,1.76-1.75h7.41c1.22,0,1.76.54,1.76,1.75V38.31C168.85,44.26,165.88,48.26,153.78,48.26Z"/><path class="cls-1" d="M175,47.51c-1.22,0-1.76-.53-1.76-1.76V14.16c0-1.21.54-1.75,1.76-1.75h16.23c7.33,0,9.62,3.32,9.62,8.14V22.8c0,2.73-.7,4.68-2.73,5.59,3.55.39,5.89,3,5.89,7.07V45.8c0,1.22-.53,1.75-1.75,1.75H194.7c-1.21,0-1.75-.53-1.75-1.75V38.31c0-1.46-.49-2.1-1.86-2.1h-6.8v9.56c0,1.22-.54,1.75-1.75,1.75Zm9.26-20.08H188c1.71,0,2.15-1,2.15-2.29V23.48c0-1.32-.44-2.29-2.15-2.29h-3.66Z"/><path class="cls-1" d="M209.33,47.51c-1.22,0-1.75-.53-1.75-1.76V40.06c0-1.22.53-1.75,1.75-1.75h13.12A1.27,1.27,0,0,0,223.72,37v-.12c0-1.13-.44-1.57-1.27-1.66l-7.31-1c-4.59-.69-7.56-2.64-7.56-8.09V21c0-5.58,3.75-8.58,10.09-8.58h13.65c1.23,0,1.77.54,1.77,1.75V20c0,1.22-.54,1.75-1.77,1.75H220A1.3,1.3,0,0,0,218.63,23c0,.06,0,.13,0,.2A1.45,1.45,0,0,0,220,24.75h0l7.27,1c4.58.7,7.61,2.64,7.61,8.1v5.12c0,5.56-3.81,8.57-10.1,8.57Z"/><path class="cls-1" d="M239.94,47.51c-1.22,0-1.75-.53-1.75-1.76V14.16c0-1.21.53-1.75,1.75-1.75h22.63c1.22,0,1.76.54,1.76,1.75v5.71c0,1.22-.54,1.75-1.76,1.75H249.11v3.76h9.51c1.22,0,1.75.54,1.75,1.76v5.21c0,1.23-.53,1.76-1.75,1.76h-9.51v4.2h13.46c1.22,0,1.76.53,1.76,1.75v5.71c0,1.22-.54,1.75-1.76,1.75Z"/><path class="cls-1" d="M85.63,85.23c-8.85,0-13-3.17-13-9.94V60.08c0-6.78,4.11-9.95,13-9.95h13.9c1.32,0,1.9.54,1.9,1.76v5.9c0,1.22-.58,1.76-1.9,1.76H87.81c-2.21,0-3.21.78-3.21,2.43V73.64C84.6,75.3,85.39,76,87,76H93.4v-7.6c0-1.22.58-1.76,1.9-1.76h8.16c1.32,0,1.9.54,1.9,1.76V83.5c0,1.22-.58,1.76-1.9,1.76Z"/><path class="cls-1" d="M115,85.23c-1.32,0-1.9-.53-1.9-1.76V51.9c0-1.23.58-1.77,1.9-1.77h5.48a3.71,3.71,0,0,1,3.11,1.33l10.21,10.82V51.9c0-1.23.58-1.77,1.9-1.77h7.9c1.32,0,1.9.54,1.9,1.77V83.5c0,1.22-.58,1.76-1.9,1.76h-7.9c-1.32,0-1.9-.54-1.9-1.76v-6l-9-10.09V83.47c0,1.23-.58,1.76-1.9,1.76Z"/><path class="cls-1" d="M169.55,86c-13.17,0-16.38-4-16.38-10V59.38c0-6,3.21-10,16.38-10s16.34,4.06,16.34,10V76C185.89,82,182.73,86,169.55,86Zm0-9.41c3.84,0,4.42-1,4.42-2.29V61.16c0-1.27-.58-2.24-4.42-2.24s-4.43,1-4.43,2.24V74.28C165.13,75.59,165.76,76.57,169.55,76.57Z"/><path class="cls-1" d="M194.16,85.23c-1.32,0-1.9-.53-1.9-1.76V51.9c0-1.23.58-1.77,1.9-1.77h8.48a2.53,2.53,0,0,1,2.42,1.47l4.75,7.95c.36.59.52.83.94.83h.47c.42,0,.58-.24,1-.83l4.68-7.95a2.51,2.51,0,0,1,2.43-1.47h8.53c1.32,0,1.89.54,1.89,1.77V83.5c0,1.22-.57,1.76-1.89,1.76h-8.11c-1.4,0-1.9-.54-1.9-1.76V66.33l-3.11,5.32a2.78,2.78,0,0,1-2.79,1.55h-2.1A2.79,2.79,0,0,1,207,71.65l-3.11-5.32V83.5c0,1.22-.58,1.76-1.89,1.76Z"/><path class="cls-1" d="M262.43,85.26l-24.41,0c-1.32,0-1.9-.53-1.9-1.76V51.9c0-1.23.58-1.77,1.9-1.77h24.45c1.32,0,1.9.54,1.9,1.77v5.7c0,1.22-.58,1.76-1.9,1.76H247.89v3.75h10.28c1.31,0,1.89.54,1.89,1.76v5.22c0,1.21-.58,1.75-1.89,1.75H247.89V76h14.54c1.32,0,1.9.54,1.9,1.76"/><path class="cls-1" d="M23,1.5,0,79.4H48.91l-23-77.9a1.55,1.55,0,0,0-3,0Z"/><ellipse class="cls-2" cx="24.43" cy="80.06" rx="24.43" ry="5.53"/></g></g></svg>